# xmcd
#
# Track frame offsets: 
#        150
#        9952
#        19132
#        27661
#        36280
#        45378
#        49830
#        77371
#        88348
#        97921
#        107890
#        114911
#        125349
#        134360
#
# Disc length: 1964 seconds
#
# Revision: 1
# Processed by: cddbd v1.5.2PL0 Copyright (c) Steve Scherf et al.
# Submitted via: ExactAudioCopy v0.99pb4
#
DISCID=a907aa0e
DTITLE=Vines - Melodia
DYEAR=2009
DGENRE=
TTITLE0=Get Out
TTITLE1=Manager
TTITLE2=A.s. Iii
TTITLE3=He's A Rocker
TTITLE4=Orange Amber
TTITLE5=Jamola
TTITLE6=True As The Night
TTITLE7=Braindead
TTITLE8=Kara Jayne
TTITLE9=Merry Go Round
TTITLE10=Hey
TTITLE11=A Girl I Knew
TTITLE12=Scream
TTITLE13=She Is Gone
EXTD=4
EXTT0=
EXTT1=
EXTT2=
EXTT3=
EXTT4=
EXTT5=
EXTT6=
EXTT7=
EXTT8=
EXTT9=
EXTT10=T11=
EXTT11=T11=
EXTT12=T11=
EXTT13=T11=
PLAYORDER=
